<svg width="44" height="44" viewBox="0 0 44 44" fill="none" xmlns="http://www.w3.org/2000/svg">
<rect width="44" height="44" rx="12" fill="#F5F5F5"/>
<path d="M35.5625 11.9375H8.4375C8.19589 11.9375 8 12.1334 8 12.375V15C8 15.2416 8.19589 15.4375 8.4375 15.4375H9.75V31.625C9.75 31.8666 9.94589 32.0625 10.1875 32.0625H11.9375C12.1791 32.0625 12.375 31.8666 12.375 31.625V15.4375H31.625V31.625C31.625 31.8666 31.8209 32.0625 32.0625 32.0625H33.8125C34.0541 32.0625 34.25 31.8666 34.25 31.625V15.4375H35.5625C35.8041 15.4375 36 15.2416 36 15V12.375C36 12.1334 35.8041 11.9375 35.5625 11.9375ZM35.125 14.5625H33.8125C33.5709 14.5625 33.375 14.7584 33.375 15V31.1875H32.5V15C32.5 14.7584 32.3041 14.5625 32.0625 14.5625H11.9375C11.6959 14.5625 11.5 14.7584 11.5 15V31.1875H10.625V15C10.625 14.7584 10.4291 14.5625 10.1875 14.5625H8.875V12.8125H35.125V14.5625Z" fill="#909090"/>
</svg>
